<svg width="251" height="224" viewBox="0 0 251 224" fill="none" xmlns="http://www.w3.org/2000/svg">
<path d="M151.091 184.255C149.408 184.76 147.746 184.684 146.103 184.475C144.843 184.315 143.625 183.93 142.292 184.349C142.036 184.429 141.632 184.542 141.506 184.107C141.422 183.82 141.19 183.777 141.042 183.959C140.552 184.56 140.239 184.312 139.893 183.902C139.644 183.608 139.424 183.559 139.482 184.119C139.171 184.133 138.861 184.129 138.554 184.107C133.625 183.484 128.719 182.764 123.945 181.511C121.427 180.851 118.774 180.887 116.204 180.471C111.466 179.703 107.094 178.067 102.811 176.071C100.221 174.864 97.7555 173.399 95.1569 172.272C89.8296 169.964 84.6485 167.353 79.3254 165.046C75.9623 163.589 72.6898 161.967 69.4197 160.331C66.4331 158.837 63.8078 156.825 61.2645 154.642C57.1747 151.13 52.9561 147.781 48.7286 144.445C41.3449 138.686 34.6838 131.99 28.8738 124.488C25.217 119.823 22.1273 114.671 19.6672 109.134C17.973 105.22 16.7526 101.116 16.669 96.6265C16.5458 89.9451 19.6748 84.8679 25.6757 81.8392C30.2676 79.5217 35.0413 78.9253 39.85 78.7793C48.5767 78.5165 56.5648 80.8328 64.1583 84.5037C69.3509 87.0137 74.3792 89.8268 79.434 92.5929C81.4579 93.7005 83.7482 94.0796 85.9569 94.6969C90.0049 95.8273 94.0943 96.8072 98.1986 97.7423C99.8656 98.1743 101.6 98.3649 103.356 98.3091C104.308 98.2524 105.184 98.7511 106.202 98.3336C106.698 98.1301 107.018 98.5953 107.28 99.0565C107.563 99.5578 108.005 100.046 108.532 99.1403C108.755 98.6829 109.129 98.3185 109.576 98.1234C110.022 97.9284 110.507 97.9178 110.929 98.0939C111.401 98.2413 111.792 98.3276 112.233 97.9712C112.289 97.9255 112.397 97.8647 112.429 97.8867C113.28 98.5018 114.102 97.7322 114.936 97.6355C116.897 97.4039 118.855 97.0659 120.815 96.8678C122.126 96.735 123.43 96.4104 124.733 96.2165C125.37 96.1625 126.007 96.0422 126.633 95.8574C127.331 95.5996 128.038 95.457 128.733 95.2283C130.353 94.6956 132.014 94.7374 133.649 94.249C135.628 93.6573 137.487 92.7022 139.416 91.967C144.557 90.006 149.64 87.777 154.943 86.5459C159.598 85.4644 163.961 86.1434 168.098 88.0092C170.208 88.9603 172.546 89.1903 174.803 89.685C177.076 90.1263 179.412 90.2918 181.767 90.1783C183.205 90.1435 184.583 89.3526 185.965 88.7601C189.962 87.0479 193.897 84.9044 198.109 84.2546C201.663 83.7063 205.23 83.0067 208.818 83.0469C212.547 83.0856 216.184 83.4641 219.614 84.7019C225.073 86.6713 229.865 89.6185 233.528 94.385C237.413 99.2829 239.53 105.566 239.546 112.25C239.716 118.438 237.729 124.16 234.898 129.735C233.578 132.476 231.965 135.067 230.093 137.453C229.32 138.398 228.395 139.312 227.703 140.252C225.836 142.787 223.457 144.6 221.108 146.443C218.626 148.391 216.005 150.124 213.4 151.883C211.477 153.18 209.365 154.056 207.531 155.531C206.874 156.06 206.002 156.275 205.225 156.621C204.317 157.026 203.648 157.835 202.761 158.31C199.679 159.959 196.65 161.738 193.572 163.398C188.176 166.308 183.126 169.898 177.952 173.242C175.703 174.696 173.463 176.16 171.217 177.615C169.945 178.438 168.588 179.092 167.27 179.788C166.499 180.195 165.535 180.412 164.7 180.748C163.512 181.228 162.173 181.201 161.118 182.209C160.843 182.471 160.52 182.666 160.174 182.778C159.829 182.891 159.471 182.919 159.129 182.86C158.223 182.74 157.356 183.479 156.434 183.335L151.091 184.255ZM89.5148 102.673C88.8193 102.108 88.1676 101.481 87.1269 101.616C86.8107 101.657 86.5883 101.322 86.4288 101.05C86.3054 100.839 86.1194 100.68 85.8965 100.596C85.6736 100.511 85.4248 100.504 85.1843 100.576C84.5655 100.818 84.2659 100.465 83.8666 100.257C83.6281 100.064 83.3669 99.9037 83.088 99.7782C80.785 99.1965 78.782 97.9122 76.5543 97.1538C75.6423 96.8423 74.9404 96.0558 73.8346 96.1399C73.481 96.1674 72.969 96.5587 72.7685 96.165C72.5716 95.7787 73.4241 95.7193 73.3074 95.135C72.7749 95.4395 72.1926 95.6093 71.61 95.6299C71.0274 95.6506 70.4619 95.5215 69.9615 95.2536C69.1141 94.7629 67.6893 94.9307 67.7631 93.2283C67.7217 94.2352 67.3889 94.5146 66.6128 94.3205C65.7058 94.0921 64.8666 93.6825 63.9794 93.4386C63.273 93.244 62.4217 93.3292 61.8537 92.8586C61.0627 92.2035 59.7207 92.9576 59.1544 91.786C59.0732 91.6207 58.6373 91.687 58.5879 92.1674C58.5933 92.3315 58.6298 92.4897 58.6953 92.6327C58.7608 92.7758 58.8539 92.9008 58.9692 93.0004C59.0845 93.1001 59.2196 93.1724 59.3667 93.213C59.5138 93.2537 59.6698 93.2619 59.8256 93.2371C60.6618 93.0252 61.2085 93.9146 62.0466 93.6463C62.0018 94.7733 62.7933 94.263 63.3163 94.2897C63.4363 94.2958 63.5953 94.2479 63.641 94.4533C63.7947 95.1448 64.5357 95.3401 64.6879 96.2365C64.9903 95.685 64.793 94.9622 65.2596 95.0347C65.8634 95.1277 65.232 95.8942 65.5567 96.3397C65.9906 95.7891 66.4459 95.7962 66.9194 96.1779C68.3816 97.3631 70.2762 97.4079 72.0201 97.8033C73.0214 98.0432 73.9951 98.3706 74.9318 98.7822C76.5532 99.4717 78.2811 99.8751 79.937 100.405C81.8955 101.033 83.9207 101.573 85.9445 102.049C87.1001 102.321 88.1931 102.999 89.5049 102.644C90.8418 103.376 91.5929 103.305 92.0984 102.374C91.2314 102.581 90.3678 102.05 89.5148 102.673ZM68.8435 151.617C69.8563 152.626 71.0024 153.477 72.2524 154.148C81.6559 159.763 91.9091 163.62 101.886 168.049C101.274 167.498 70.0706 152.071 68.8439 151.616L68.8435 151.617ZM170.869 171.078C164.455 173.376 157.985 175.446 151.674 178.154C158.567 177.811 164.897 175.173 170.87 171.077L170.869 171.078ZM20.6339 93.9046C20.2605 94.2946 20.0255 94.8054 19.9748 95.3369C19.5223 97.6797 20.0208 99.8397 20.5551 101.992C20.8033 102.99 20.8913 103.048 22.0804 103.014C20.2073 101.284 19.955 99.3708 21.4859 98.41C21.2057 97.9207 20.5135 97.1579 20.8841 96.91C21.8514 96.2628 21.0737 95.92 20.9442 95.5391C20.7852 95.0726 20.4861 94.673 20.6339 93.9046ZM101.44 112.129C98.7202 111.341 95.9387 110.744 93.1129 110.342C95.7237 111.55 98.4076 112.481 101.44 112.129ZM32.0957 80.8693C35.6549 80.4727 39.2122 80.1839 42.7659 80.0939C39.2483 79.7237 35.6421 79.9857 32.0957 80.8693ZM84.7607 150.192C82.9402 148.714 80.6214 148.53 78.4472 147.957C80.3459 149.221 82.573 149.639 84.7607 150.192ZM21.2396 103.569C21.4714 105.86 22.0088 106.297 23.7746 105.303C22.3226 105.408 22.6051 103.432 21.2406 103.569L21.2396 103.569ZM152.232 179.945L152.222 179.636L145.627 179.948L145.616 180.221C147.804 180.504 150.022 180.158 152.233 179.946L152.232 179.945ZM94.2739 154.812C92.76 154.052 91.4422 152.83 89.5559 152.941C91.207 153.381 92.6084 154.406 94.2739 154.812ZM72.9247 119.994C74.0733 120.603 75.1651 121.334 76.6662 121.119C75.4121 120.582 74.2878 119.934 72.9247 119.994ZM88.7836 126.621C89.6171 126.983 90.4654 127.413 91.7472 126.863C90.8318 126.467 89.7994 126.383 88.7832 126.622L88.7836 126.621ZM76.1181 119.973C77.142 120.045 77.8136 121.072 79.1709 120.88C78.2606 120.312 77.213 120.001 76.1177 119.973L76.1181 119.973ZM58.1004 92.4956C58.1526 91.9118 57.6012 91.8083 57.8619 91.3252C57.9327 91.1972 56.7379 91.4619 56.8048 91.6969C56.9715 92.2828 57.6512 92.0435 58.1004 92.4956ZM151.71 177.318C151.248 176.974 150.873 176.679 150.385 176.983C150.227 177.081 150.226 177.43 150.391 177.577C150.801 177.943 151.203 177.692 151.709 177.318L151.71 177.318Z" fill="#FFF9BE"/>
</svg>
