<svg width="155" height="105" viewBox="0 0 155 105" fill="none" xmlns="http://www.w3.org/2000/svg">
<path d="M64.0556 38.8637C67.5041 39.217 70.9129 39.1602 74.3426 39.3271C79.2614 39.5663 84.1793 39.7835 89.1262 40.4045C92.1648 40.7859 95.1945 40.8712 98.2498 41.3303C105.375 42.4009 112.503 43.3063 119.617 44.6859C125.326 45.7933 131.041 46.8393 136.737 48.0755C141.786 49.1712 146.755 50.631 151.741 52.0202C152.44 52.2149 153.131 52.4741 153.631 52.9915C153.394 53.5066 152.764 52.7885 152.543 53.236C152.92 53.6379 154.172 53.4644 153.831 54.1514C153.552 54.7133 152.764 55.1339 151.694 54.9889C150.206 54.7866 148.889 54.0651 147.444 53.7475C141.037 52.3388 134.656 50.7716 128.202 49.6777C124.231 49.0053 120.258 48.19 116.29 47.8319C114.09 47.6333 111.947 46.8677 109.759 46.8727C109.222 46.8739 108.666 46.588 108.17 47.0093C107.985 47.1655 107.156 47.4147 107.018 46.5527C106.989 46.3711 106.606 46.4106 106.368 46.3834C103.785 46.0994 101.159 45.5475 98.6322 45.5778C96.1719 45.6073 93.7221 45.181 91.2752 45.097C89.5462 45.0375 87.8007 44.2477 86.0112 44.2894C85.2724 44.3066 84.5055 44.1711 83.8004 44.3663L82.9588 44.257C81.0446 43.9004 79.1447 43.7144 77.28 43.9512C75.2847 43.5677 73.2735 43.4864 71.34 43.711C69.2102 43.4912 67.0912 43.2053 65.0485 43.7138C64.1998 43.9248 63.1757 43.751 62.2421 43.7948C59.0599 43.9453 55.8844 44.1258 52.7006 44.268C52.1117 44.2942 51.4982 44.4968 50.8922 44.0778C49.2107 43.8379 47.6273 44.024 46.0776 44.355C44.5309 44.7431 42.8429 44.5936 41.2262 44.6904C39.1417 44.815 37.1211 44.9296 35.1974 45.5888C33.6147 46.1312 31.7097 45.9649 29.9816 46.2783C26.2039 46.9632 22.2884 47.4739 18.8664 48.7727C15.1451 50.1852 10.9478 50.6491 7.39735 52.3277C6.49189 52.7559 5.76166 53.3985 4.6871 53.6322C3.593 53.8701 1.77914 53.3153 1.03591 52.1965C0.427588 51.2818 0.473539 50.3511 1.37872 49.6569C2.92906 48.4671 4.6932 47.5234 6.53337 46.6861C14.451 43.0832 23.1338 40.9538 32.1398 39.4838C40.9335 38.0701 49.9405 37.286 59.0745 37.1391C63.7271 37.0526 68.4179 37.2907 73.1019 37.4462C77.9217 37.6063 82.7394 37.8231 87.5781 38.3262C91.8862 38.774 96.1955 39.3654 100.503 39.9402C105.549 40.6132 110.588 41.3436 115.608 42.2555C127.65 44.4431 139.673 46.8162 151.436 50.6894C152.23 50.9507 153.222 50.8385 153.823 51.7329C152.976 52.0705 152.133 51.8056 151.306 51.542C145.252 49.6122 139.122 48.0988 132.95 46.6914C123.854 44.6163 114.703 43.288 105.569 41.7362C101.152 40.9858 96.7057 40.6588 92.2741 40.0668C86.4607 39.2903 80.6647 38.9314 74.8761 38.5983C71.4141 38.3988 67.9406 38.2959 64.5372 38.5674C64.2899 38.5872 64.0781 38.6353 64.0686 38.8925C63.4302 38.4216 62.7623 38.6338 62.1226 38.6342C57.1437 38.6373 52.2077 38.8546 47.2871 39.1566C44.1988 39.3461 41.1635 39.7258 38.0923 39.9753C34.8606 40.2381 31.7121 40.8693 28.6018 41.5163C27.721 41.6995 26.4546 41.4347 25.9855 42.3991C24.4941 41.9501 23.5024 42.6923 22.3888 43.1428C23.6299 42.9957 24.8802 42.8674 25.9678 42.3633C26.2971 42.3703 26.6229 42.3541 26.9419 42.3147C36.0257 40.5377 45.3472 39.5529 54.8548 39.1877C57.9195 39.0685 60.9885 38.9707 64.0556 38.8637ZM11.0352 46.4163C10.1979 46.5777 9.3283 46.7093 8.79818 47.3249C9.6063 47.1177 10.5023 47.0557 11.0352 46.4163Z" fill="#0E084B"/>
</svg>
