<svg width="345" height="205" viewBox="0 0 345 205" fill="none" xmlns="http://www.w3.org/2000/svg">
<path d="M62.544 14.3123C65.8483 12.4224 69.339 10.7257 72.9857 9.23687C75.2517 8.28237 77.6057 7.4478 79.8932 6.51986C80.8106 6.14636 81.5371 5.97289 81.9579 7.16228C81.5031 5.89695 82.5079 5.64338 83.4935 5.37446C84.7984 5.0655 86.0806 4.70435 87.3347 4.29256C88.4721 3.87299 88.9341 4.09875 89.027 5.18439C89.4632 3.01975 92.0152 3.13429 93.5975 2.5176C96.9645 1.2 100.703 0.514551 104.496 0.519377C105.214 0.555282 105.936 0.501437 106.631 0.360016C108.763 -0.204799 110.928 0.0471067 113.08 0.113092C115.251 0.144277 117.417 0.26564 119.57 0.476631C123.191 0.891631 126.855 0.964671 130.47 1.51413C134.642 2.14701 138.824 2.79108 143.021 3.3061C154.01 4.65443 164.513 7.26561 174.96 10.0291C183.518 12.2929 191.996 14.7302 200.315 17.4505C210.034 20.6817 219.16 24.8446 227.469 29.8362C236.709 35.3067 245.626 41.0898 255.199 46.2349C260.191 48.9187 265.459 51.2954 270.696 53.7024C282.026 58.9103 292.215 65.1535 300.726 72.8705C306.086 77.726 310.429 83.1243 314.948 88.4222C320.389 94.802 326.328 100.92 332.087 107.132C336.203 111.457 339.501 116.193 341.887 121.204C343.881 125.538 345.168 130.002 344.9 134.586C344.62 139.382 344.02 144.173 341.462 148.693C340.281 150.759 338.95 152.774 337.474 154.728C335.424 157.467 332.607 159.55 329.719 161.612C323.898 165.765 316.976 168.558 309.399 170.498C304.213 171.826 299.01 173.08 293.604 173.771C284.801 174.928 275.815 175.055 266.961 174.146C254.518 172.813 241.842 173.469 229.756 176.073C223.672 177.377 217.588 178.741 211.745 180.486C199.328 184.193 187.272 188.557 175.133 192.763C165.013 196.268 154.778 199.571 143.925 201.635C138.384 202.724 132.748 203.519 127.059 204.013C118.166 204.729 109.314 204.142 100.494 203.083C90.262 201.889 80.1499 200.17 70.2281 197.937C54.5646 194.358 41.5939 187.834 31.673 177.987C23.764 170.139 16.2505 162.063 10.3287 153.258C2.42845 141.514 -0.747797 128.988 0.146503 115.808C0.590353 109.272 1.00506 102.736 1.90651 96.2308C2.96471 88.5919 4.65981 81.0248 7.91031 73.7171C10.583 67.5155 13.9174 61.4875 17.8807 55.6924C24.3042 46.5076 31.4619 37.6731 40.3279 29.7071C45.1305 25.3912 50.2108 21.2503 56.2553 17.8465C58.3668 16.6575 60.2703 15.2569 62.5891 14.2775C62.6474 14.7622 62.3614 14.9908 61.8037 15.2896C60.0679 16.2192 58.3277 17.1754 57.0638 18.5125C56.7825 18.4814 56.4953 18.5046 56.2291 18.5799C55.9628 18.6553 55.7262 18.7803 55.5414 18.9433C53.8282 20.2514 51.9395 21.4308 50.2554 22.7588C48.2578 24.3358 45.9071 25.6787 44.4776 27.6388C42.9355 28.4058 41.7404 29.5098 41.0522 30.8032C42.2402 29.7744 44.2455 29.2216 44.4237 27.6006C44.9959 27.5024 45.5088 27.2636 45.8818 26.9217C47.9833 25.1978 50.2268 23.5855 52.4394 21.9467C53.9745 20.8096 56.1728 20.1323 57.0319 18.486C57.8289 18.7204 58.2155 18.22 58.6973 17.9332C60.9782 16.5757 63.2326 15.1942 65.6768 13.999C67.1348 13.286 68.5467 12.5191 69.9795 11.7767L69.71 11.4754C67.8026 12.3593 65.8693 13.2138 64.0043 14.1455C63.4873 14.4015 63.1424 14.7622 62.544 14.3123ZM61.389 18.4797C61.0392 18.0593 61.5089 17.6572 61.4748 17.2057C60.6547 17.8207 59.1318 17.8323 58.9267 19.172C59.8815 18.8039 60.5217 18.2718 61.4446 18.4366C60.404 19.626 58.4905 20.2211 57.8839 21.779C57.5539 22.621 55.7735 22.8024 55.1663 23.7146C53.5966 22.8451 53.9844 23.8806 53.9305 24.4483C53.8755 25.0372 53.2253 25.2559 52.7238 25.5273C52.1822 25.8519 51.7012 26.2302 51.2938 26.6519C48.9882 28.7506 46.5357 30.7571 44.179 32.8246C43.2951 33.6003 42.1874 34.3029 41.4839 35.0785C40.7321 35.9085 40.0991 36.875 39.3137 37.742C36.413 40.9408 33.2136 44.0147 30.7133 47.3837C27.7202 51.4158 24.5929 55.4102 22.0954 59.6502C19.9834 63.2354 17.5078 66.7119 16.0146 70.4817C15.0669 72.875 13.401 75.0534 12.8323 77.5741C12.1558 80.5741 10.7599 83.4592 10.1631 86.5016C9.42061 90.288 8.46911 94.0674 8.14626 97.8763C7.69416 103.205 7.12875 108.53 6.92085 113.876C6.60955 121.874 6.86035 129.812 9.3117 137.637C10.6427 141.886 12.2091 146.093 14.6825 150.039C20.4883 159.304 28.3225 167.623 36.2909 175.865C45.0232 184.898 56.2905 191.246 70.607 194.503C80.7953 196.771 91.1905 198.472 101.709 199.591C111.923 200.715 122.322 200.441 132.408 198.782C145.462 196.691 157.702 192.957 169.693 188.683C185.265 183.132 200.746 177.433 217.147 173.334C227.615 170.72 238.267 168.932 249.333 168.758C255.224 168.666 261.044 169.318 266.882 169.726C281.622 170.756 295.567 168.494 309.035 164.172C315.754 162.014 321.881 159.143 326.738 154.948C334.128 148.565 336.853 140.879 337.243 132.633C337.648 124.092 333.888 116.465 327.525 109.543C319.16 100.44 310.56 91.4571 302.789 82.054C294.744 72.3185 284.083 64.6265 271.228 58.5999C263.102 54.7902 255.015 50.9423 247.319 46.6375C240.074 42.585 233.276 38.1175 226.184 33.9256C218.378 29.3104 210.39 24.8707 201.07 22.0902C193.181 19.7364 185.239 17.4813 177.3 15.2228C169.719 13.0636 161.888 11.4646 154.209 9.52819C151.584 8.89542 148.874 8.48427 146.129 8.30229C143.562 8.11222 141.623 6.81949 138.716 6.95104C135.895 7.07845 132.602 6.24555 129.58 5.56578C128.281 5.37135 126.955 5.29998 125.632 5.3533C123.049 5.40921 120.464 5.29814 117.906 5.02129C115.536 4.72789 112.67 5.94716 110.8 3.72567C111.447 4.46063 111.5 5.17028 110.863 5.70854C110.261 6.21691 109.276 6.13723 108.462 5.95173C106.917 5.59939 105.393 5.78863 103.835 5.82515C101.47 5.87993 99.5293 7.09131 97.1252 7.044C96.4399 7.03031 95.7249 6.55472 95.0039 7.03446C93.8692 7.78893 92.261 7.65074 91.0587 8.07819C88.8153 8.87499 86.414 8.44712 84.1969 9.02273C82.7233 9.40802 81.3028 9.90045 79.9554 10.4931C78.7525 11.0164 77.4556 11.5862 75.975 11.6617C75.2199 11.7003 74.8024 12.3602 73.9813 12.2514C74.0759 13.5554 72.5182 13.3499 71.6063 13.7512C70.4623 14.255 69.1314 14.4314 68.06 15.095C65.9843 16.3757 63.9476 17.7249 61.389 18.4797ZM316.768 162.892C320.527 162.134 328.707 156.853 329.16 154.743C325.581 157.902 321.405 160.648 316.768 162.892Z" fill="#CF0E0E"/>
</svg>
