<svg width="10" height="5" viewBox="0 0 10 5" fill="none" xmlns="http://www.w3.org/2000/svg">
<path d="M9.88543 2.14536C9.88531 2.14525 9.88521 2.14511 9.88508 2.14499L7.84398 0.113748C7.69107 -0.0384191 7.44375 -0.0378528 7.29154 0.115076C7.13936 0.267986 7.13994 0.51531 7.29285 0.667497L8.66324 2.03124H0.390625C0.174883 2.03124 0 2.20613 0 2.42187C0 2.63761 0.174883 2.81249 0.390625 2.81249H8.66322L7.29287 4.17624C7.13996 4.32842 7.13938 4.57575 7.29156 4.72866C7.44377 4.88161 7.69111 4.88213 7.844 4.72998L9.8851 2.69874C9.88521 2.69862 9.88531 2.69849 9.88545 2.69837C10.0384 2.54567 10.0379 2.29755 9.88543 2.14536Z" fill="#2D9CDB"/>
</svg>
