<svg width="15" height="15" viewBox="0 0 15 15" fill="none" xmlns="http://www.w3.org/2000/svg">
<path d="M7.5 0C3.36457 0 0 3.36457 0 7.5C0 11.6354 3.36457 15 7.5 15C11.6354 15 15 11.6354 15 7.5C15 3.36457 11.6354 0 7.5 0ZM10.5334 9.64963C10.6555 9.77165 10.6555 9.96952 10.5334 10.0916L10.0916 10.5334C9.96952 10.6554 9.77171 10.6554 9.64963 10.5334L7.5 8.3838L5.35037 10.5334C5.22829 10.6554 5.03048 10.6554 4.9084 10.5334L4.46657 10.0916C4.34449 9.96955 4.34449 9.77168 4.46657 9.64963L6.6162 7.49997L4.46657 5.35034C4.34449 5.22832 4.34449 5.03045 4.46657 4.9084L4.9084 4.46654C5.03048 4.34452 5.22829 4.34452 5.35037 4.46654L7.5 6.61617L9.64963 4.46654C9.77171 4.34452 9.96952 4.34452 10.0916 4.46654L10.5334 4.9084C10.6555 5.03042 10.6555 5.22829 10.5334 5.35034L8.3838 7.49997L10.5334 9.64963Z" fill="#0E084B" fill-opacity="0.5"/>
</svg>
