<svg width="216" height="208" viewBox="0 0 216 208" fill="none" xmlns="http://www.w3.org/2000/svg">
<path d="M170.974 94.6606C170.763 95.2693 170.594 95.8863 170.472 96.5022C170.377 97.3413 170.002 98.1358 169.816 98.9554C169.702 99.4566 169.421 99.9757 169.37 100.453C169.334 100.743 169.241 101.038 169.101 101.312C168.719 102.146 168.436 103.019 168.263 103.892C168.164 104.383 167.887 104.865 167.746 105.395C167.456 106.312 167.112 107.219 166.719 108.106C166.543 108.45 166.427 108.821 166.383 109.184C166.371 109.469 166.111 109.832 165.961 110.16C165.759 110.501 165.599 110.87 165.492 111.249C165.435 111.511 165.354 111.774 165.253 112.03C165.008 112.869 164.638 113.692 164.331 114.525C164.176 114.949 164.065 115.385 163.916 115.812C163.767 116.238 163.433 116.635 163.509 117.1C163.045 118.041 162.932 119.047 162.549 120.008C162.302 120.63 162.377 121.297 162.028 121.925C162.066 123.104 161.594 124.394 161.666 125.581C161.69 126.643 161.802 127.665 162.002 128.631C162.303 129.833 162.854 130.775 163.295 131.824C163.564 132.382 163.879 132.893 164.236 133.351C164.573 133.834 164.931 134.297 165.227 134.825C165.527 135.35 165.853 135.847 166.204 136.312C166.791 137.103 167.368 137.907 167.904 138.755C168.702 140.018 169.459 141.328 170.177 142.684C170.61 143.504 170.898 144.475 171.312 145.318C171.759 146.328 172.148 147.393 172.475 148.507C172.789 149.618 173.034 150.781 173.21 151.985C173.636 154.231 173.624 156.729 173.177 159.302C172.987 160.441 172.705 161.587 172.335 162.72C171.911 163.854 171.443 164.974 170.933 166.076C170.806 166.381 170.731 166.773 170.39 166.93C170.36 166.944 170.39 167.317 170.313 167.41C170.108 167.685 169.922 167.983 169.761 168.297C169.566 168.665 169.354 169.022 169.124 169.362C168.958 169.582 168.768 169.768 168.566 169.909C168.441 170.259 168.399 170.556 168.265 170.722C166.827 172.495 165.421 174.312 163.837 175.87C162.503 177.217 161.125 178.47 159.712 179.619C157.347 181.448 154.922 183.048 152.464 184.401C150.674 185.344 148.878 186.372 147.06 186.823C146.977 186.844 146.878 187.031 146.76 187.171L146.689 186.935C145.926 187.422 145.143 187.763 144.37 187.945C143.795 188.097 143.219 188.252 142.642 188.443C141.957 188.674 141.275 188.822 140.607 188.886C140.375 188.906 140.1 189.169 139.865 189.196C139.224 189.271 138.575 189.404 137.93 189.515C137.39 189.608 136.826 189.886 136.283 189.99C135.856 190.034 135.435 190.046 135.021 190.027C134.784 190.039 134.533 190.119 134.3 190.122C134.104 190.124 133.809 190.38 133.741 190.001C133.519 190.109 133.32 190.31 133.071 190.222C132.879 190.155 132.587 190.349 132.346 190.381C132.132 190.41 131.93 190.363 131.719 190.371C131.476 190.426 131.237 190.441 131.01 190.416C130.736 190.312 130.416 190.341 130.096 190.499C129.821 190.591 129.552 190.6 129.312 190.527C128.609 190.387 127.769 190.773 127.132 190.392C126.516 190.7 126.038 190.378 125.481 190.41C124.947 190.442 124.461 190.23 123.927 190.29C123.66 190.321 123.449 190.146 123.235 190.234C123.009 190.298 122.792 190.281 122.608 190.187C122.384 190.142 122.134 190.173 121.914 190.119C121.705 190.067 121.531 189.92 121.321 189.871C121.195 189.873 121.062 189.906 120.931 189.968L120.793 189.615C120.736 189.61 120.682 189.581 120.632 189.606C120.408 189.722 120.205 189.916 119.968 189.791C119.723 189.726 119.469 189.689 119.208 189.679C118.982 189.625 118.803 189.417 118.507 189.632C118.151 189.325 117.639 189.449 117.223 189.308C116.952 189.158 116.639 189.098 116.307 189.132C116.016 189.197 115.845 188.748 115.461 189.012C115.421 189.04 115.363 188.984 115.313 188.968C114.567 188.716 113.826 188.452 113.073 188.218C112.733 188.112 112.364 188.065 112.011 187.992C111.682 187.924 111.466 187.55 111.017 187.787C110.907 187.846 110.775 187.693 110.653 187.638C110.34 187.552 110.05 187.41 109.788 187.215C109.561 186.978 109.026 187.546 108.996 186.915C108.639 187.122 108.429 186.866 108.172 186.767C107.902 186.587 107.605 186.461 107.286 186.393C106.33 186.416 105.61 185.886 104.846 185.489C103.901 184.999 102.795 184.939 101.857 184.441C100.908 183.937 99.9138 183.526 98.93 183.097C98.2804 182.813 97.8106 182.206 97.1207 181.982C96.4361 181.812 95.8007 181.514 95.2311 181.095C94.672 180.696 94.083 180.353 93.4673 180.065C93.182 179.898 92.9445 179.639 92.6686 179.452C92.3926 179.265 91.9952 179.279 91.879 178.822C91.2693 178.749 91.0003 178.035 90.4255 177.901C90.1685 177.787 89.9474 177.599 89.7744 177.349C89.5343 177.202 89.3119 177.023 89.1101 176.812C88.8536 176.434 88.4056 176.287 88.0541 176.017C87.9158 175.911 87.8352 175.705 87.6947 175.604C87.0848 175.139 86.5115 174.613 85.9784 174.029C85.1837 173.202 84.3255 172.463 83.5826 171.569C83.2613 171.274 82.9662 170.941 82.6997 170.57C82.4461 170.187 82.1688 169.833 81.8695 169.509C81.5611 169.113 81.253 168.715 80.9592 168.302C80.4326 167.561 79.9316 166.789 79.3924 166.065C78.1499 164.395 77.158 162.446 76.1198 160.549C75.8922 160.133 75.7315 159.646 75.5081 159.226C74.888 158.056 74.5066 156.659 73.8624 155.514C73.6335 153.97 72.8822 152.844 72.6074 151.324C72.4002 150.181 71.9123 149.217 71.7121 148.07C71.4503 146.588 71.0449 145.181 71.0714 143.527C71.057 143.351 71.0308 143.182 70.993 143.02C70.8519 141.905 70.6783 140.808 70.5869 139.669C70.4885 138.439 70.357 137.227 70.2644 135.997C70.1484 134.443 70.0107 132.911 69.7688 131.428C69.6897 130.943 69.7336 130.379 69.6376 129.907C69.2622 128.065 68.9666 126.144 68.209 124.609C67.6012 123.379 66.9991 122.127 66.0071 121.312C65.5276 120.919 65.0586 120.51 64.5707 120.126C64.14 119.774 63.6688 119.492 63.164 119.284C62.834 119.153 62.4466 119.156 62.1068 119.044C61.7498 118.926 61.447 118.609 61.0696 118.623C60.6922 118.636 60.416 118.395 60.0799 118.434C59.7195 118.477 59.4755 118.256 59.1632 118.265C58.467 118.286 57.8542 118.046 57.1609 118.042C56.5921 118.039 56.0312 117.909 55.4553 117.875C54.6773 117.83 53.8892 117.823 53.1205 117.744C51.9399 117.623 50.7187 117.674 49.5268 117.589C48.3906 117.507 47.22 117.548 46.1105 117.36C45.6738 117.653 45.4549 117.14 45.0133 117.307C44.6823 117.432 44.3545 117.212 44.0208 117.159C43.7673 117.118 43.4986 117.122 43.2534 117.063C43.0277 117.008 42.8512 116.806 42.551 117.009C42.5126 117.036 42.4567 116.966 42.4057 116.95C41.7858 116.675 41.1328 116.478 40.4533 116.358C39.4708 116.29 38.7338 115.693 37.8562 115.41C37.6401 115.34 37.485 115.108 37.1575 115.315C37.0348 115.392 36.8208 115.27 36.7272 115.142C36.2023 114.432 35.3516 114.375 34.6836 113.955C34.3571 113.75 34.0528 113.503 33.743 113.267C33.4539 113.047 33.0919 113.012 32.841 112.653C32.6249 112.344 32.2168 112.214 31.9304 111.929C31.6504 111.649 31.2425 111.54 31.0144 111.208C30.6409 110.662 30.071 110.439 29.6936 109.885C29.334 109.36 28.8304 108.991 28.4436 108.477C28.1402 108.075 27.8115 107.699 27.5499 107.25C27.0099 106.322 26.4613 105.398 25.9986 104.392C25.1828 102.679 24.4671 100.868 23.8551 98.9708C23.6568 98.3305 23.5922 97.6093 23.3978 96.9824C23.0981 96.0167 23.0706 94.8969 22.9194 93.8487C22.8314 92.9567 22.8087 92.032 22.8518 91.085C22.8665 90.0642 23.0116 89.0028 23.2818 87.9403C23.3926 87.3666 23.5535 86.7916 23.7612 86.227C23.982 85.7015 24.1078 85.1381 24.3384 84.6182C24.5548 84.2213 24.7841 83.8334 25.0254 83.4558C25.231 83.0692 25.3479 82.4776 25.5889 82.2974C25.9655 82.0162 25.9685 81.3833 26.3872 81.2569C27.092 80.0126 28.0063 79.0381 28.8578 77.9691C29.6475 77.0563 30.4716 76.2007 31.3238 75.4088C32.1426 74.572 32.9988 73.8153 33.8817 73.1484C34.9575 72.3475 36.0617 71.6666 37.1784 71.1154C38.8026 70.3211 40.4335 69.6387 42.0631 69.0717C43.0876 68.7016 44.1116 68.3584 45.1357 68.0182C46.1294 67.6889 47.1207 67.4029 48.1141 67.0555C48.8668 66.853 49.6241 66.5628 50.3766 66.1885C50.8452 65.9177 51.3318 65.8067 51.805 65.5628C52.6107 65.1473 53.409 64.6278 54.216 64.255C55.1435 63.8145 56.0645 63.2913 56.9714 62.6897C58.3537 61.765 59.7094 60.7202 61.0262 59.5646C61.3186 59.268 61.5878 58.9293 61.8255 58.559C62.2205 57.9558 62.5794 57.3208 62.8973 56.6627C63.1568 56.1999 63.4345 55.7488 63.6972 55.2875C63.9598 54.8261 64.0515 54.2501 64.4964 53.9008C64.6073 53.8133 64.6598 53.5463 64.7509 53.3689C64.999 52.8854 65.254 52.4066 65.5057 51.9252C65.7389 51.4757 65.9156 50.8532 66.2127 50.6142C66.6448 50.2658 66.6883 49.6936 67.0898 49.3158C67.4912 48.938 67.7275 48.2109 68.0625 47.6585C68.7817 46.4732 69.5042 45.2898 70.2515 44.1297C70.6904 43.4509 71.189 42.8326 71.6382 42.1575C72.0601 41.5232 72.5692 40.9766 73.0169 40.3647C73.5234 39.7134 74.0493 39.0882 74.5922 38.4915C75.5637 37.3556 76.4064 36.0594 77.3885 34.9516C78.651 33.528 79.7791 31.868 81.2165 30.7492C82.0502 29.5704 83.1597 29.0357 84.0857 28.0568C84.5015 27.6168 85.0179 27.3722 85.481 27.0128C87.0763 25.7746 88.7381 24.895 90.3664 23.8374C91.5809 23.0641 92.8152 22.4157 94.0549 21.8996C95.2446 21.3904 96.4442 20.7606 97.6317 20.6154C98.3024 20.1515 98.9548 20.2288 99.623 19.9691C100.196 19.7802 100.765 19.6796 101.315 19.6693C102.085 19.6099 102.831 19.6989 103.609 19.5711C104.041 19.4996 104.336 19.7601 104.77 19.6897C105.223 19.6161 105.61 19.9703 106.065 19.946C106.827 19.9057 107.369 20.353 108.001 20.599C108.637 20.8183 109.246 21.1024 109.824 21.4494C110.186 21.7292 110.53 22.0397 110.854 22.3794C111.986 23.4135 112.784 24.8344 113.544 26.3002C113.95 27.0795 114.29 27.926 114.559 28.8302C115.23 31.0227 115.701 33.3677 115.967 35.8304C116.175 37.946 116.553 39.9489 116.889 41.9804C117.136 43.4834 117.625 44.8227 118.329 45.9285C118.918 46.814 119.611 47.5707 120.393 48.1833C121.577 49.1643 123.029 49.5532 124.367 50.1864C124.894 50.4479 125.483 50.567 126.108 50.538C126.317 50.5826 126.517 50.6546 126.704 50.753C126.901 50.7942 127.121 50.7637 127.326 50.783C128.101 50.856 128.864 50.9679 129.649 51.0046C130.39 51.0764 131.153 51.0692 131.93 50.9831C133.356 50.7542 134.758 50.6582 136.177 50.4591C137.681 50.2179 139.168 50.0929 140.63 50.0848C141.704 50.1024 142.832 49.981 143.81 50.365C144.192 50.1774 144.422 50.5217 144.733 50.4896C145.113 50.4503 145.394 50.738 145.726 50.6441C146.131 50.5301 146.325 50.8261 146.639 50.8592C147.655 50.9377 148.619 51.1956 149.506 51.6267C149.556 51.6532 149.673 51.5437 149.759 51.4972L149.806 51.7313C150.112 51.7921 150.395 51.8293 150.662 51.9056C151.216 52.0608 151.644 52.5297 152.313 52.4092C152.468 52.3832 152.594 52.5993 152.803 52.757L153.064 52.6822L153.132 53.022L153.424 52.8552L153.576 53.1183C153.788 53.1664 154.128 53.1015 154.196 53.2789C154.37 53.6283 154.664 53.8372 155.019 53.8649C155.848 54.1004 156.483 54.7112 157.169 55.1916C157.879 55.6929 158.554 56.2544 159.192 56.8736C159.579 57.2474 160.049 57.5058 160.343 58.0326C160.476 58.2693 160.781 58.3117 160.942 58.526C161.197 58.8646 161.611 59.0101 161.691 59.5637C162.076 59.6514 162.387 59.9157 162.578 60.3163C162.81 60.6886 163.123 60.9491 163.353 61.3267C163.558 61.6618 163.849 61.9398 164.099 62.2472C164.548 62.7987 165.099 63.2525 165.409 63.9392C165.755 64.707 166.324 65.1847 166.669 65.9465C167.055 66.7961 167.613 67.4757 168.043 68.2858C168.225 68.6275 168.595 68.8451 168.448 69.4746C168.894 69.6033 168.848 70.2751 169.107 70.6222C169.328 70.9687 169.507 71.3628 169.639 71.7962C169.916 72.5567 170.126 73.3793 170.442 74.1018C170.863 75.0635 170.944 76.2787 171.354 77.2416C171.307 78.1957 171.817 78.8305 171.669 79.8619C171.659 80.2673 171.716 80.6454 171.836 80.973C172.147 82.3359 172.069 83.8813 172.118 85.3685C172.142 86.3468 172.096 87.3529 171.979 88.3751C171.866 89.7241 171.679 91.0902 171.418 92.4632C171.275 93.1339 171.122 93.8057 170.981 94.4764C170.965 94.5411 170.963 94.6051 170.974 94.6606ZM147.61 55.8477C147.413 55.8865 147.08 56.0685 146.886 55.9658C146.456 55.7838 145.994 55.6784 145.511 55.6519C145.069 55.5899 144.658 55.4283 144.214 55.4057C143.616 55.3755 143.03 55.3022 142.428 55.2881C141.75 55.2699 141.083 55.1769 140.391 55.2514C139.777 55.3166 139.166 55.3754 138.553 55.4394C137.94 55.5034 137.328 55.5329 136.716 55.6402C135.041 55.935 133.412 55.996 131.766 56.1455C131.144 56.2597 130.537 56.2681 129.962 56.1702C129.314 55.9831 128.535 56.2357 127.966 55.831C127.24 56.2132 126.765 55.5886 126.09 55.7694C125.277 55.3989 124.323 55.3808 123.553 54.8933C123.347 54.724 123.08 54.6668 122.794 54.7303C122.524 54.8038 122.272 54.5227 122.028 54.3696C121.901 54.2908 121.826 54.1166 121.7 54.0406C121.153 53.7942 120.635 53.4845 120.152 53.1143C119.72 52.7057 119.25 52.3393 118.807 51.9354C117.915 51.1275 117.114 50.1805 116.418 49.1077C115.154 47.1011 114.258 44.6983 113.771 42.0105C113.476 40.4767 113.275 38.877 113.067 37.2847C112.732 34.7038 112.42 32.0874 111.717 29.7381C111.47 28.891 111.14 28.1111 110.734 27.4121C110.093 26.3489 109.213 25.5809 108.163 25.1698C107.663 24.9554 107.225 24.5974 106.592 24.6835C106.325 24.7193 106.111 24.4568 105.853 24.3828C105.589 24.2907 105.305 24.2522 105.008 24.2684C104.615 24.312 104.303 24.0362 103.931 24.1449C103.343 24.3184 102.817 24.2044 102.261 24.2607C101.6 24.299 100.93 24.388 100.254 24.5272C99.5724 24.6963 98.8919 24.8367 98.1962 25.0819C96.1054 25.7971 94.0128 26.7396 91.9423 27.8984C91.7772 28.0043 91.6069 28.0716 91.4411 28.0963C91.1745 28.1118 91.0303 28.4441 90.824 28.5787C90.6115 28.7182 90.3354 28.6796 90.1668 28.8604C89.6658 29.3991 89.1058 29.6006 88.5794 29.9772C88.0529 30.3538 87.5227 30.718 87.0012 31.1128C86.4888 31.5006 85.9835 31.9148 85.4783 32.3273C85.0643 32.6664 84.5665 32.8106 84.1701 33.6681L84.4017 33.9705L83.8806 34.2924L83.9105 34.7727C82.9437 35.1957 82.209 36.0865 81.4817 37.0189C81.1456 37.4025 80.7933 37.7586 80.4284 38.0836L80.454 38.2923C79.8369 39.0947 79.2483 39.9325 78.602 40.6786C78.0457 41.3209 77.5211 42.0062 76.9641 42.6414C76.3997 43.2854 75.7797 43.8488 75.4004 44.716C74.5327 45.4755 73.9986 46.6678 73.2241 47.5249C72.8492 47.94 72.7231 48.7056 72.1704 48.7473C72.2103 49.482 71.7161 49.6679 71.4175 50.0442C71.4511 50.1852 71.4405 50.3527 71.3875 50.5183C71.3344 50.6839 71.2422 50.8373 71.1266 50.9526C70.7137 51.5166 70.3317 52.1143 69.9853 52.7383C69.5792 53.3374 69.2247 53.9837 68.932 54.659C68.8201 54.9566 68.6947 55.4059 68.5323 55.5038C68.0666 55.7841 68.1119 56.5624 67.6293 56.7508L66.9305 58.2853C66.8476 58.4674 66.7902 58.721 66.6768 58.819C66.288 59.1556 66.1606 59.6577 65.9251 60.0937C65.6645 60.5061 65.4178 60.9303 65.1861 61.3645C64.8698 62.0107 64.4605 62.5965 63.9891 63.0774C62.6844 64.4633 61.281 65.6461 59.8239 66.5879C59.2392 66.9941 58.621 67.2408 58.0301 67.5822C56.5717 68.4242 55.1149 69.2491 53.6423 69.9413C52.9352 70.2734 52.229 70.6373 51.5212 70.9274C50.6884 71.2686 49.8527 71.5716 49.0209 71.8421C48.4468 72.0299 47.8767 72.1024 47.3027 72.2913C46.6412 72.509 45.9835 72.7556 45.3218 72.8954C44.6706 73.0321 44.005 73.3574 43.3424 73.4914C42.7233 73.6675 42.1014 73.9 41.4817 74.1871L41.4475 74.0485C41.2538 74.2096 41.0636 74.4546 40.8909 74.497C39.6154 74.8104 38.3842 75.6024 37.1414 76.3436C35.8146 77.1755 34.54 78.2537 33.3687 79.5352C31.8234 81.1587 30.285 82.8062 29.1085 84.9288C28.6421 85.249 28.6516 85.9742 28.3117 86.3025C27.9255 86.7063 27.6342 87.2472 27.4983 87.813C27.3309 88.3988 27.1159 88.9777 26.8573 89.5385C26.8443 89.879 26.8017 90.2281 26.7304 90.5796C26.4926 91.4708 26.3976 92.3611 26.4518 93.1901C26.4946 94.6217 26.4013 96.1256 26.8462 97.356C26.973 97.7076 26.9247 98.2147 27.0655 98.549C27.7771 100.232 28.3881 102.008 29.2288 103.573C29.9172 104.923 30.7449 106.125 31.6977 107.155C32.3216 107.828 32.9914 108.433 33.7031 108.969C34.5107 109.637 35.4055 110.157 36.3703 110.518C36.7061 110.62 37.0246 110.765 37.3222 110.951C38.3016 111.553 39.4456 111.759 40.5306 112.095C40.9444 112.223 41.3716 112.481 41.807 112.399C42.25 112.316 42.4818 112.649 42.8755 112.61C43.2798 112.569 43.6703 112.598 44.0369 112.696C44.6671 112.812 45.314 112.875 45.9743 112.884C46.6918 112.956 47.4207 112.985 48.1577 112.981C49.1293 112.977 50.091 113.017 51.0529 113.054C51.9911 113.09 52.9247 113.147 53.8594 113.192C54.6163 113.23 55.3569 113.349 56.1145 113.354C57.0436 113.36 57.8938 113.611 58.8147 113.633C59.1482 113.64 59.4627 113.777 59.8069 113.814C60.1686 113.852 60.4401 114.184 60.8786 114.012C61.5086 114.409 62.2765 114.463 62.9618 114.718C63.6528 114.905 64.2755 115.261 64.8026 115.771C65.0346 116.034 65.5813 115.941 65.7021 116.259C65.8642 116.687 66.3102 116.536 66.4432 116.963C66.5593 117.338 67.0899 117.174 67.1655 117.666C68.2202 118.348 68.8877 119.564 69.5843 120.697C70.3598 121.9 70.9731 123.285 71.4086 124.814C71.7337 126.03 72.1703 127.163 72.3893 128.463C72.7849 130.812 73.1258 133.188 73.3184 135.655C73.4076 136.813 73.5008 137.976 73.6211 139.117C73.7745 140.573 73.8573 142.072 74.0701 143.489C74.281 145.191 74.5795 146.843 74.9637 148.434C75.2532 149.503 75.505 150.608 75.8103 151.667C76.0624 152.556 76.3635 153.407 76.7118 154.213C77.0238 154.926 77.2693 155.697 77.6286 156.374C77.9944 157.062 78.2877 157.841 78.6526 158.538C79.2998 159.774 79.9504 161.005 80.6972 162.136C81.2338 162.949 81.7791 163.746 82.3833 164.472C83.2905 165.563 84.1848 166.672 85.0963 167.757C85.5202 168.304 85.9931 168.786 86.5098 169.197C87.0989 169.621 87.4684 170.411 88.2154 170.559C88.8938 171.492 89.8966 171.91 90.6661 172.705C90.975 173.024 91.4287 173.112 91.7584 173.454C92.0656 173.772 92.4959 173.915 92.8401 174.213C93.2558 174.573 93.7837 174.74 94.222 175.098C94.7935 175.563 95.4882 175.827 96.112 176.22C97.5295 177.114 99.2258 177.448 100.549 178.551C101.077 178.99 101.829 178.859 102.421 179.138C103.125 179.469 103.829 179.802 104.547 180.103C105.235 180.425 105.953 180.682 106.695 180.873C107.65 181.081 108.476 181.635 109.45 181.847C110.461 182.068 111.392 182.521 112.358 182.873C112.408 182.892 112.461 182.958 112.503 182.933C112.905 182.7 113.162 182.943 113.414 183.11C113.714 183.306 114.092 183.196 114.413 183.286C115.017 183.455 115.613 183.651 116.212 183.837C116.263 183.853 116.323 183.923 116.356 183.896C116.71 183.614 116.877 183.948 117.131 183.989C117.41 184.035 117.701 184.051 117.974 184.115C118.456 184.229 118.904 184.508 119.413 184.465C120.125 184.405 120.716 184.711 121.423 184.659C121.741 184.664 122.047 184.715 122.337 184.811C122.665 184.891 122.997 184.934 123.335 184.982C124.33 185.123 125.37 185.094 126.364 185.248C126.903 185.331 127.52 185.187 128.09 185.249C128.671 185.313 129.341 185.053 129.884 185.307C130.459 184.981 130.947 185.2 131.486 185.107C132.052 185.01 132.581 185.082 133.154 184.995C134.307 184.818 135.458 184.661 136.616 184.457C138.131 184.19 139.66 183.757 141.184 183.4C142.119 183.181 143.054 182.861 143.983 182.547C145.014 182.199 146.054 181.801 147.094 181.34C147.806 181.023 148.509 180.615 149.213 180.326C149.892 180.047 150.558 179.659 151.231 179.348C151.759 179.069 152.283 178.751 152.799 178.397C153.311 178.026 153.836 177.712 154.366 177.458C154.897 177.26 155.296 176.768 155.756 176.415C155.784 176.395 155.813 176.377 155.843 176.361C157.261 175.555 158.569 174.359 159.898 173.234C161.538 171.74 163.118 170.105 164.622 168.346C165.373 167.442 166.093 166.492 166.776 165.502C167.158 164.966 167.626 164.437 167.86 163.843C168.252 162.851 168.952 162.047 169.22 160.972C169.399 160.256 169.803 159.563 170.036 158.812C170.302 157.964 170.497 157.106 170.617 156.258C170.781 154.926 170.769 153.637 170.581 152.445C170.097 149.916 169.327 147.586 168.292 145.513C167.541 144.002 166.699 142.588 165.769 141.278C165.207 140.544 164.806 139.598 164.212 138.912C163.402 137.978 162.813 136.793 162.087 135.766C161.478 134.798 160.919 133.772 160.413 132.692C159.851 131.592 159.427 130.357 159.151 129.015C158.926 127.878 158.774 126.694 158.696 125.473C158.621 124.683 158.628 123.852 158.718 123.001C158.817 122.171 158.952 121.321 159.058 120.488C159.204 119.507 159.393 118.521 159.625 117.534C159.855 116.498 160.146 115.463 160.497 114.439C160.896 113.25 161.318 112.053 161.769 110.882C162.202 109.757 162.488 108.576 163.099 107.507C163.158 107.405 163.25 107.263 163.241 107.185C163.182 106.625 163.59 106.176 163.759 105.673C163.928 105.171 164.08 104.663 164.271 104.168C164.678 103.115 165.105 102.068 165.524 101.019C165.539 100.982 165.567 100.945 165.574 100.911C165.797 99.5023 166.543 98.1492 166.766 96.7415C167.086 96.3064 166.985 95.7762 167.234 95.3502C167.505 94.8852 167.531 94.4071 167.669 93.944C167.973 92.9205 168.206 91.8899 168.44 90.8617C168.63 90.0153 168.769 89.1706 168.856 88.3361C168.949 87.4655 169.117 86.5939 169.153 85.7187C169.277 83.6945 169.204 81.7344 168.935 79.8823C168.77 78.6713 168.525 77.508 168.204 76.4027C167.846 75.32 167.491 74.2278 167.065 73.1918C166.399 71.575 165.548 70.1638 164.787 68.654C164.365 68.4925 164.278 67.8941 163.948 67.5984C163.652 67.3143 163.397 66.9715 163.188 66.5777C162.937 66.191 162.663 65.8315 162.368 65.5011C162.049 64.9931 161.681 64.5437 161.268 64.1593C160.215 63.3826 159.517 62.0635 158.345 61.4802C158.334 60.8942 157.734 61.1588 157.604 60.6587C157.513 60.31 157.018 60.4401 156.812 60.0412C156.64 59.7083 156.15 59.7185 155.826 59.5287C155.634 59.4158 155.505 59.1805 155.318 59.055C155.096 58.9057 154.833 58.8318 154.61 58.6845C154.539 58.6383 154.537 58.4661 154.528 58.4343C154.339 58.4613 154.156 58.459 153.981 58.4276C153.217 58.0989 152.476 57.7169 151.702 57.4093C150.948 57.1086 150.168 56.8693 149.394 56.6153C149.003 56.4857 148.696 56.1618 148.186 56.2932C147.993 56.3423 147.83 56.0312 147.61 55.8477Z" fill="#EA472C"/>
</svg>
