<svg width="79" height="20" viewBox="0 0 79 20" fill="none" xmlns="http://www.w3.org/2000/svg">
<path d="M60.7009 4.12721C61.6498 4.65732 62.5395 5.22421 63.5049 5.6747C64.5285 6.15325 65.6089 6.5383 66.7268 6.82296C67.6575 7.05961 68.5616 7.36646 69.5489 7.35359C70.266 7.72792 71.0747 7.59771 71.8428 7.6748C72.1569 7.706 72.4869 7.57277 72.8062 7.58997C73.1501 7.6084 73.467 7.48785 73.7722 7.49182C74.9006 7.50676 75.9484 7.14381 77.0639 7.12602C77.1459 7.12475 77.2236 7.04402 77.3343 6.98316L78.2463 7.56879L77.3292 8.04984L78.369 8.12166L78.0461 8.65449L78.2449 8.96451C78.0764 9.26579 77.9637 9.69037 77.6571 9.96234C77.2303 10.3415 76.6777 10.631 76.1397 10.9067C75.8856 11.025 75.5914 11.0729 75.2986 11.0438C74.6869 10.9803 74.1156 11.2728 73.4971 11.1158C73.4065 11.0927 73.2732 11.1964 73.1424 11.2482C73.1083 11.1492 73.0727 11.0459 73.0363 10.9404L69.1472 10.6718C69.5195 10.8726 69.928 10.8492 70.3243 10.8849C70.7738 10.9249 71.225 10.9471 71.6754 10.981C72.0752 11.0115 72.4746 11.0484 72.862 11.2362C72.0774 11.182 71.2927 11.1313 70.5086 11.0728C69.5767 11.0032 68.6201 11.0266 67.7935 10.5397C66.8563 10.487 66.0323 10.1294 65.1693 9.85682C64.7623 9.73207 64.4003 9.51921 64.1209 9.24049C64.0693 9.27788 64.0179 9.31547 63.9227 9.3853C63.3206 9.06339 62.7339 8.67783 62.0773 8.42343C61.6239 8.24768 61.4709 7.81377 60.9819 7.70417C60.8022 7.66382 60.6473 7.54089 60.3863 7.40704C60.0899 7.30379 59.5838 7.54165 59.2472 7.16681C59.1954 7.2041 59.1436 7.24147 59.0608 7.30133L58.8013 7.15521L58.6314 7.45288L58.2868 7.42908L58.4954 7.18027C58.4388 7.15375 58.3656 7.09395 58.3282 7.1062C58.0609 7.19407 57.7991 7.29372 57.539 7.39539C57.3057 7.48647 57.0769 7.58498 56.7923 7.70245L56.5005 7.51818L56.2912 7.83042L56.1414 7.69797C55.9178 7.82706 55.7017 8.05825 55.4666 8.0672C54.8232 8.09146 54.3329 8.428 53.7353 8.53877C53.4324 8.59491 53.1607 8.79366 52.9026 8.95781C52.0623 9.50561 51.1128 9.92781 50.0947 10.2064L49.8604 9.99737L49.4389 10.3048L48.5472 10.2432C48.406 10.4111 48.2767 10.5648 48.1318 10.7372L47.7673 10.712C47.6397 10.8291 47.5439 11.003 47.4003 11.0336C46.7344 11.1752 46.1107 11.5184 45.3452 11.1026C45.0189 10.9254 44.4874 11.0175 44.0369 11.1293L45.2824 11.2791L45.2699 11.3794L43.8743 11.283C43.8379 11.1773 43.8024 11.074 43.7425 10.8999C43.2273 11.2564 42.7369 11.0711 42.2627 10.8609C41.5961 10.5654 40.9518 10.2632 40.3792 9.81651C39.6389 9.23895 38.8487 8.68387 37.9245 8.30009C37.8159 8.24104 37.7133 8.17461 37.6176 8.10148L36.4006 8.01742C36.3644 7.9638 36.3322 7.93582 36.3387 7.92212C36.3507 7.89833 36.3895 7.88533 36.412 7.86408C36.4502 7.82795 36.4844 7.78878 36.5512 7.71833L35.8072 7.66695C35.7653 7.53862 35.7319 7.43625 35.6901 7.3086L35.2671 7.22065L35.4941 7.53148L35.2616 7.71697L35.9046 7.86942C34.5307 7.95698 33.1969 8.31775 31.8275 8.03159C31.536 8.60347 30.9989 8.71347 30.324 8.64624C29.3937 9.26284 28.4637 9.91205 27.4915 10.5147C26.4783 11.1427 25.341 11.6416 24.0923 11.7937C23.0403 11.9218 21.9194 12.1729 20.8582 11.652C20.7583 11.6243 20.6527 11.6156 20.5493 11.6266C19.4918 11.5965 18.6085 11.1489 17.7257 10.7255C17.3565 10.548 17.0816 10.2328 16.7168 10.0455C16.2164 9.78846 15.6561 9.64342 15.0954 9.4842C14.0926 9.19962 13.0758 9.22946 12.0655 9.13003C11.1371 9.04499 10.2021 9.09574 9.30287 9.27998C9.20061 9.29859 9.09315 9.29021 8.99522 9.25598C8.90235 9.20263 8.81979 9.1376 8.75057 9.06328C8.70214 9.16323 8.65583 9.25876 8.57548 9.42435L8.08146 9.22954C8.05893 9.28643 8.02893 9.36237 7.97791 9.4915C7.12125 9.63436 6.38525 10.2604 5.36424 10.0522L5.03882 10.2872L5.24626 10.5082C4.73099 10.7812 4.15324 10.9959 3.72402 11.3395C3.26799 11.7046 2.84354 12.0799 2.19372 12.3931C2.13444 12.4833 2.01235 12.6685 1.86756 12.8883L1.33055 13.1011C1.23612 13.6192 1.23612 13.6192 0.901662 13.9107L0.0519417 13.0974L0.156453 11.5843C0.203682 11.5612 0.511753 11.4931 0.530305 11.3848C0.605702 10.9423 1.1663 10.8456 1.34347 10.4907C1.53172 10.1141 1.95027 9.90999 2.2834 9.64099C2.73847 9.27322 3.18641 8.89973 3.61688 8.51315C4.58738 7.6421 6.52925 6.8043 8.26023 6.59487C8.66913 6.54539 9.05911 6.40821 9.46551 6.34031C9.84918 6.27625 10.2491 6.51235 10.6556 6.26324C10.8236 6.16024 11.1917 6.28126 11.2296 6.28388L11.8604 6.60587C11.7133 6.75374 11.6323 6.83566 11.5158 6.95267L12.7863 7.04042L12.143 6.80423C12.7473 6.34642 13.3191 6.00657 14.1424 6.45171C14.2347 6.48712 14.3349 6.50482 14.4355 6.5035C15.7203 6.60734 16.8157 7.0498 17.8294 7.73623C18.2398 8.01431 18.7917 8.25426 19.3664 8.22762C19.9301 8.20137 20.4032 8.45973 20.9322 8.51831C22.5392 8.6963 23.9736 8.29468 25.3128 7.6436C26.0291 7.30358 26.7127 6.91871 27.3577 6.49221C28.4634 5.74452 29.7566 5.33705 31.1099 5.06049C32.0828 4.86161 33.1091 4.83681 34.0992 4.70517C35.1364 4.56774 36.136 4.78464 37.1484 4.75831C37.8051 4.74123 38.3024 5.02331 38.7749 5.31023C39.8179 5.94358 40.802 6.64517 41.8375 7.2877C42.3143 7.58337 42.9085 7.69882 43.4752 7.80619C44.5125 8.00279 45.535 7.83908 46.5239 7.62155C47.3223 7.44596 48.0877 7.17261 48.8628 6.93233C50.1635 6.52908 51.3641 5.96583 52.5884 5.43073C53.8214 4.89186 55.135 4.44236 56.5851 4.36093C57.0281 4.33602 57.4627 4.20982 57.8937 4.11045C58.8362 3.89351 59.7807 4.10813 60.7009 4.12721Z" fill="#E12729"/>
</svg>
