<svg width="20" height="20" viewBox="0 0 20 20" fill="none" xmlns="http://www.w3.org/2000/svg">
<path d="M6.86602 7.72656C7.82812 7.53902 8.7669 7.28125 9.65859 7C8.47355 4.83199 7.00683 2.87496 5.28192 1.22266C2.74745 2.58199 0.819119 5.00781 0.197266 7.9023C2.06298 8.2773 4.36672 8.23047 6.86602 7.72656Z" fill="#0E084B"/>
<path d="M16.3587 2.34762L16.1944 2.99215C15.9363 4.0234 13.7538 5.49996 10.8907 6.56641L10.7616 6.61324C9.59999 4.42184 8.13326 2.42965 6.42017 0.707031C7.52314 0.273438 8.73169 0 9.98721 0C12.2283 0 14.317 0.789062 15.9832 2.04293C16.1122 2.13668 16.2414 2.23047 16.3587 2.34762Z" fill="#0E084B"/>
<path d="M11.2192 10.4805C10.9141 9.64848 10.5738 8.83988 10.1984 8.05469C9.21275 8.38285 8.16844 8.6641 7.10063 8.875C5.93898 9.10938 4.42536 9.32031 2.82956 9.32031C1.91428 9.32031 0.936462 9.25 0.0095301 9.07418C-0.0139766 9.37887 0.0134023 9.68359 0.0134023 10C0.0134023 13.082 1.42146 15.8359 3.61568 17.664C3.62742 17.5937 3.63919 17.5234 3.65085 17.4531C4.09677 14.7579 7.218 11.9102 11.2192 10.4805Z" fill="#0E084B"/>
<path d="M11.6065 11.582C12.4043 14.0898 12.8502 16.8125 12.8971 19.5664C11.9819 19.8477 10.9963 20 9.98718 20C8.09804 20 6.32623 19.4336 4.82427 18.5195C4.7656 18.2383 4.7656 17.9453 4.81261 17.6406C5.17636 15.4258 8.08631 12.8594 11.6065 11.582Z" fill="#0E084B"/>
<path d="M19.8943 11.4179C19.4015 14.8516 17.1213 17.7226 14.047 19.0937C13.9649 16.375 13.4955 13.7265 12.7094 11.2304C15.3377 10.5039 17.8292 10.5859 19.8943 11.4179Z" fill="#0E084B"/>
<path d="M19.9999 9.99996V10.2109C17.7588 9.37883 15.103 9.34371 12.3338 10.1289C12.0288 9.28516 11.6768 8.46484 11.3013 7.66797C13.23 6.94473 16.8293 5.2802 17.3325 3.27344C18.9635 5.04289 19.9999 7.41008 19.9999 9.99996Z" fill="#0E084B"/>
</svg>
