<svg width="20" height="20" viewBox="0 0 20 20" fill="none" xmlns="http://www.w3.org/2000/svg">
<path d="M10.0001 0C4.50748 0 0 4.50745 0 10C0 14.687 3.2889 18.9447 7.65631 20V16.6916C7.22357 16.7863 6.82531 16.7891 6.38478 16.6592C5.79381 16.4848 5.31361 16.0912 4.95716 15.4909C4.72996 15.1076 4.32727 14.6919 3.9072 14.7224L3.8042 13.5551C4.71256 13.4773 5.49839 14.1086 5.96486 14.8923C6.17207 15.2408 6.41057 15.4451 6.71666 15.5354C7.01254 15.6226 7.33023 15.5807 7.70041 15.45C7.79333 14.7089 8.13284 14.4315 8.38935 14.0408V14.0402C5.78465 13.6517 4.74659 12.2699 4.3346 11.1792C3.78863 9.73099 4.0816 7.92175 5.04704 6.77841C5.0658 6.75613 5.09968 6.69785 5.08656 6.6571C4.6439 5.31998 5.1833 4.21387 5.20313 4.09653C5.714 4.24759 5.79701 3.94455 7.42224 4.93195L7.70315 5.10071C7.82065 5.17075 7.78372 5.13077 7.90121 5.12192C8.57978 4.93759 9.29511 4.83582 9.99992 4.82666C10.7101 4.83582 11.4208 4.93759 12.1275 5.12939L12.2184 5.13855C12.2105 5.13733 12.2431 5.13275 12.2979 5.1001C14.3281 3.87039 14.2552 4.27231 14.7996 4.09531C14.8193 4.2128 15.3515 5.33691 14.9136 6.6571C14.8545 6.83899 16.6737 8.50479 15.6654 11.1787C15.2534 12.2699 14.2155 13.6517 11.6108 14.0402V14.0408C11.9447 14.5497 12.3458 14.8204 12.3437 15.8702V20C16.7112 18.9447 20 14.687 20 10C20.0002 4.50745 15.4927 0 10.0001 0V0Z" fill="#0E084B"/>
</svg>
