<svg width="15" height="15" viewBox="0 0 15 15" fill="none" xmlns="http://www.w3.org/2000/svg">
<path d="M14.7481 6.33425L8.01807 0.201899C7.72267 -0.0673094 7.27721 -0.0672801 6.98193 0.20187L0.251895 6.33428C0.0152649 6.5499 -0.062899 6.88213 0.0527063 7.18064C0.168341 7.47914 0.449883 7.672 0.77001 7.672H1.84491V13.8162C1.84491 14.0598 2.04243 14.2573 2.28603 14.2573H5.97491C6.21851 14.2573 6.41603 14.0598 6.41603 13.8162V10.0856H8.58406V13.8162C8.58406 14.0598 8.78158 14.2573 9.02518 14.2573H12.7139C12.9575 14.2573 13.155 14.0598 13.155 13.8162V7.672H14.2301C14.5502 7.672 14.8318 7.47911 14.9474 7.18064C15.0629 6.8821 14.9847 6.5499 14.7481 6.33425Z" fill="#0E084B"/>
<path d="M13.0399 0.880524H10.0774L13.481 3.97532V1.32162C13.481 1.07801 13.2835 0.880524 13.0399 0.880524Z" fill="#0E084B"/>
</svg>
