<svg width="20" height="20" viewBox="0 0 20 20" fill="none" xmlns="http://www.w3.org/2000/svg">
<g clip-path="url(#clip0)">
<path d="M19.1667 20C18.9533 20 18.74 19.9183 18.5775 19.7558L12.7608 13.9392C12.435 13.6133 12.435 13.0867 12.7608 12.7608C13.0867 12.435 13.6133 12.435 13.9392 12.7608L19.7558 18.5775C20.0817 18.9033 20.0817 19.43 19.7558 19.7558C19.5933 19.9183 19.38 20 19.1667 20Z" fill="#0E084B"/>
<path d="M8.125 16.25C3.645 16.25 0 12.605 0 8.125C0 3.645 3.645 0 8.125 0C12.605 0 16.25 3.645 16.25 8.125C16.25 12.605 12.605 16.25 8.125 16.25ZM8.125 1.66667C4.56417 1.66667 1.66667 4.56417 1.66667 8.125C1.66667 11.6858 4.56417 14.5833 8.125 14.5833C11.6858 14.5833 14.5833 11.6858 14.5833 8.125C14.5833 4.56417 11.6858 1.66667 8.125 1.66667Z" fill="#0E084B"/>
</g>
<defs>
<clipPath id="clip0">
<rect width="20" height="20" fill="white"/>
</clipPath>
</defs>
</svg>
