<svg width="10" height="10" viewBox="0 0 10 10" fill="none" xmlns="http://www.w3.org/2000/svg">
<path d="M9.47126 3.96752L9.47159 3.96755C9.48458 3.96872 9.49509 3.97711 9.49909 3.98949L9.97384 3.83601L9.49927 3.99004C9.50344 4.00287 9.49981 4.01632 9.48946 4.02538L9.48905 4.02573L7.30737 5.9387L7.08394 6.13461L7.14973 6.4244L7.79299 9.25799C7.793 9.25801 7.793 9.25804 7.79301 9.25807C7.79606 9.27169 7.79097 9.2846 7.78017 9.29243L7.78013 9.29246C7.7692 9.30038 7.75617 9.30044 7.74608 9.29436L7.74491 9.29366L5.25614 7.80567L5.0001 7.65259L4.74403 7.80562L2.25435 9.29362L2.25412 9.29376C2.2504 9.29598 2.24734 9.29716 2.24496 9.29782C2.24256 9.29848 2.24025 9.29879 2.23791 9.29879C2.23502 9.29879 2.23213 9.29835 2.22922 9.29741C2.2264 9.2965 2.22295 9.29493 2.21897 9.29207C2.20897 9.28483 2.20344 9.27231 2.20669 9.2578C2.2067 9.25779 2.2067 9.25777 2.20671 9.25775L2.84992 6.4244L2.9157 6.13465L2.69231 5.93873L0.510628 4.02538L0.509681 4.02456C0.50065 4.01668 0.496427 4.00358 0.500745 3.9903C0.505004 3.97721 0.515709 3.96875 0.529036 3.96746C0.529089 3.96745 0.529142 3.96745 0.529195 3.96744L3.41511 3.70544L3.71182 3.67851L3.82888 3.40454L4.96994 0.734248C4.96996 0.734211 4.96997 0.734174 4.96999 0.734137C4.97586 0.720548 4.98766 0.713636 5.00005 0.713636C5.0126 0.713636 5.02446 0.720727 5.03024 0.733974C5.03027 0.734042 5.0303 0.73411 5.03033 0.734178L6.17121 3.40452L6.28826 3.6785L6.58499 3.70544L9.47126 3.96752ZM9.81806 4.40096C9.97851 4.26057 10.0398 4.03886 9.97393 3.83598L1.92662 9.6965C2.01955 9.76364 2.12827 9.79782 2.23791 9.79782C2.33244 9.79782 2.42621 9.77234 2.51036 9.72198L5.00005 8.23399L7.48882 9.72198C7.67094 9.83155 7.90052 9.82155 8.07302 9.6965C8.24598 9.57115 8.32678 9.35569 8.27971 9.14778L7.63638 6.31392L9.81806 4.40096Z" stroke="#FFC107" stroke-width="0.998073"/>
</svg>
